<svg xmlns="http://www.w3.org/2000/svg" version="1.1" style="display: block;" preserveAspectRatio="none" viewBox="495.52 562.87 1061.65 856.14">
<path transform="translate(0,0)" fill="rgb(0,0,0)" d="M 978.361 764.423 C 1071.36 760.725 1173.14 775.27 1249.91 832.305 C 1266.28 844.466 1277.86 858.085 1291.45 872.963 C 1299.05 871.06 1322.19 859.973 1327.91 863.381 C 1335.55 867.923 1351.99 849.245 1352.25 845.576 C 1354.63 810.847 1390.74 794.513 1417.56 816.569 C 1427.5 824.788 1427.59 836.683 1427.78 850.25 C 1435.47 853.415 1443.95 857.87 1447.76 865.481 C 1455.37 879.704 1452.05 900.84 1437.66 909.95 C 1410.72 927.012 1395.9 910.061 1366.59 925.224 C 1361.21 935.441 1352.8 939.901 1343.98 948.155 C 1370.54 983.503 1389.14 1005.81 1390.32 1052.42 C 1393.28 1168.84 1274.29 1218.96 1175.25 1220.17 C 1162.82 1220.22 1150.29 1220.34 1137.86 1220.18 C 1085.78 1219.49 1033.44 1207.95 981.652 1205.87 C 965.099 1219.17 952.008 1226.68 929.851 1228.79 C 883.696 1233.18 831.808 1221.23 788.118 1206.39 C 773.801 1201.53 758.687 1193.33 745.429 1188.76 C 728.217 1182.84 717.601 1183.45 700.746 1172.92 C 683.151 1161.93 677.46 1146.42 662.644 1135.32 C 653.114 1128.17 634.155 1129.81 622.454 1119.22 C 611.014 1108.87 607.635 1095.74 606.143 1080.93 C 605.011 1069.7 607 1058.08 611.91 1048.1 C 621.2 1029.21 641.095 1019.85 651.021 1001.46 C 658.045 988.454 661.368 974.778 666.428 960.961 C 676.789 933.026 692.065 907.17 711.533 884.616 C 780.262 804.072 876.075 772.262 978.361 764.423 z M 850.562 1076.41 C 868.873 1077.73 886.056 1079.03 903.872 1083.94 C 953.037 1097.49 1002.1 1128.35 992.605 1185.7 C 1033.21 1186.32 1072.09 1195.4 1112.11 1198.12 C 1190.04 1203.41 1284.04 1196.55 1339.5 1135 C 1383.41 1079.93 1377.09 1019.92 1332.91 966.806 C 1312.57 1010.91 1313.34 1060.32 1271.5 1094.9 C 1265.7 1099.7 1235.08 1125.82 1229.31 1112.57 C 1229.61 1108.48 1240.98 1097.53 1244.06 1094.61 C 1263.33 1076.33 1278.68 1058.01 1289.2 1033.42 C 1302.99 1001.15 1306.94 955.563 1334.43 931.563 C 1335.99 930.21 1337.57 928.888 1339.18 927.599 C 1315.62 916.11 1316.6 908.713 1316.53 884.309 C 1271.85 899.494 1236.02 897.248 1189.71 898.834 C 1117.08 901.321 1045.15 929.863 1012.96 999.315 C 1010.38 1004.89 997.518 1040.52 995.473 1041.73 C 982.583 1039.73 991.168 1001.75 994.757 993.035 C 1012.2 950.687 1048.85 918.002 1090.24 899.641 C 1148.54 873.485 1205.35 879.251 1266.94 876.924 C 1211.56 816.077 1116 789.509 1035.45 785.655 C 1021.5 785.059 1007.54 784.992 993.594 785.453 C 892.548 791.277 802.466 816.434 731.514 894.425 C 710.955 917.024 695.721 942.963 685.489 971.629 C 680.238 986.342 674.872 1002.37 666.783 1015.73 C 657.879 1030.44 639.449 1041.37 631.138 1055.9 C 627.378 1062.41 625.59 1069.87 625.99 1077.37 C 626.424 1086.06 629.106 1097.25 636.016 1103.14 C 645.421 1111.16 660.366 1109.96 670.503 1116 C 682.48 1123.14 690.594 1136.75 700.706 1146.23 C 672.487 1095.3 706.149 1063.23 733.996 1023.23 C 740.379 1014.06 744.873 1002.03 751.702 993.039 C 765.058 991.578 771.735 1008.13 775.745 1018.52 C 790.021 1004.86 871.307 930.834 885.409 930.968 C 888.287 930.995 890.577 932.206 892.613 934.199 C 900.606 942.022 900.471 962.229 899.606 972.649 C 896.466 1010.46 875.467 1048.55 850.562 1076.41 z M 755.761 1018.81 C 750.547 1029.19 746.066 1038.78 739.575 1048.34 C 724.504 1070.52 701.097 1094.37 711.557 1123.91 C 728.572 1171.97 801.075 1190.26 845.521 1201.06 C 876.036 1208.47 921.419 1215.37 949.636 1203.38 C 985.855 1183.39 978.371 1152.48 949.896 1129.96 C 947.798 1137.33 944.063 1153.43 937.543 1157.77 L 935.955 1157.1 C 932.219 1147.17 938.753 1133.78 941.614 1123.9 C 928.955 1115.31 919.673 1111.2 905.126 1106.08 C 903.573 1114.89 903.722 1120.04 898.018 1126.62 L 895.901 1127.23 C 890.399 1121.75 894.763 1110.07 896.453 1103.46 C 888.073 1101.89 878.314 1099.82 869.956 1098.8 C 868.955 1104.24 868.188 1116.42 860.768 1115.43 C 857.206 1110.64 858.416 1107.31 859.256 1101.52 C 859.424 1100.37 859.597 1099.23 859.776 1098.08 C 848.497 1097.04 816.594 1097.63 810.523 1092.68 C 810.135 1090.95 809.593 1090.37 810.57 1089.28 C 817.99 1080.96 827.015 1073.79 834.84 1065.47 C 831.107 1062.99 828.314 1061.71 826.248 1057.81 L 826.034 1055.04 C 831.001 1050.42 836.298 1054.44 841.384 1057.26 C 846.676 1050.37 852.423 1043.29 856.767 1035.81 C 852.52 1034.03 849.125 1033.2 846.451 1029.62 L 845.773 1026.97 C 849.338 1021.11 856.54 1025.04 861.504 1027.06 C 864.585 1021.2 869.767 1012.64 870.339 1006.4 C 864.652 1003.53 862.122 1004.85 859.704 1001.1 C 859.973 997.26 859.266 998.831 861.55 996.088 C 867.018 995.503 869.689 995.939 875.099 996.456 C 877.576 986.038 883.586 965.464 880.133 955.718 L 878.935 954.758 C 846.844 980.937 814.373 1008.92 783.757 1036.92 C 778.462 1041.76 769.095 1054.99 762.75 1055.84 L 761.181 1055.05 C 759.918 1044.01 759.209 1028.85 755.761 1018.81 z M 1384.56 826.125 C 1368.59 833.802 1372.89 838.803 1369.14 853.59 C 1365.62 867.48 1345.66 876.254 1336.18 884.522 C 1335.61 892.179 1335.39 896.498 1335.77 904.116 C 1341.38 907.573 1344.93 909.665 1350.86 912.507 C 1363.36 905.952 1368.93 902.463 1382.64 899.071 C 1396.7 897.162 1433.69 909.495 1433.73 878.265 C 1433.74 866.184 1407.71 869.841 1403.82 862.182 C 1404.48 852.044 1413.2 840.786 1406.23 831.402 C 1402.07 825.803 1390.66 825.636 1384.56 826.125 z"/>
<path transform="translate(0,0)" fill="rgb(0,0,0)" d="M 1031.66 1081.82 C 1037.78 1083.5 1044.86 1096.92 1048.87 1102.22 C 1069.26 1129.17 1100.13 1138.93 1132.59 1141.29 C 1135.1 1141.48 1136.2 1142.81 1137.37 1144.8 C 1136.25 1148.68 1136.74 1147.38 1133.63 1150.51 C 1104.25 1154.56 1075.41 1145.52 1053.56 1125.48 C 1045.12 1117.74 1021.41 1093.25 1031.66 1081.82 z"/>
<path transform="translate(0,0)" fill="rgb(0,0,0)" d="M 1130.26 930.271 C 1134.55 930.534 1136.44 929.9 1137.32 934.342 C 1136.71 935.634 1135.66 937.97 1134.39 938.647 C 1119.45 946.696 1102.41 951.374 1088.78 961.986 C 1077.13 971.058 1067.95 983.614 1059.53 995.566 C 1055.85 995.777 1054.24 994.261 1052.42 991.47 C 1052.42 985.041 1057.11 979.564 1060.62 974.466 C 1074.19 954.766 1106.5 933.622 1130.26 930.271 z"/>
<path transform="translate(0,0)" fill="rgb(0,0,0)" d="M 744.339 908.809 C 746.206 908.848 746.818 909.07 748.66 909.433 L 749.958 911.392 C 749.813 913.013 749.375 916.088 748.259 917.265 C 730.088 936.434 721.369 957.864 708.348 980.019 C 705.575 978.977 705.672 979.101 703.439 977.194 C 697.663 962.181 731.112 917.614 744.339 908.809 z"/>
<path transform="translate(0,0)" fill="rgb(0,0,0)" d="M 1050.9 809.358 C 1061.56 808.31 1086.62 805.982 1093.09 816.178 L 1092.51 818.053 C 1086.08 822.142 1082.36 821.231 1074.75 820.873 C 1066.18 820.121 1037.02 823.467 1035.36 814.877 C 1039.05 810.115 1044.7 810.273 1050.9 809.358 z"/>
<path transform="translate(0,0)" fill="rgb(0,0,0)" d="M 1261.38 1032.3 C 1264.13 1033.44 1263.96 1033.3 1265.81 1035.63 C 1268.54 1047.13 1247.28 1067.84 1237.45 1071.77 C 1233.6 1070.24 1232.88 1069.85 1232.47 1065.98 C 1234.25 1062.5 1257.63 1035.89 1261.38 1032.3 z"/>
<path transform="translate(0,0)" fill="rgb(0,0,0)" d="M 1276.94 989.437 L 1280.58 989.97 C 1288.39 996.24 1280.82 1008.35 1276.87 1015.13 L 1272.54 1014.72 C 1266.38 1008.37 1273.14 995.804 1276.94 989.437 z"/>
<path transform="translate(0,0)" fill="rgb(0,0,0)" d="M 1112.17 819.795 C 1121.6 819.129 1134.28 820.567 1131.39 832.987 C 1122.19 835.069 1110.94 831.194 1112.17 819.795 z"/>
<path transform="translate(0,0)" fill="rgb(0,0,0)" d="M 1251.04 1003.58 L 1253.85 1005.67 C 1258.36 1014.33 1251.8 1021.03 1244.98 1025.69 C 1237.02 1018.1 1243.62 1008.47 1251.04 1003.58 z"/>
<path transform="translate(0,0)" fill="rgb(0,0,0)" d="M 744.356 943.767 C 745.468 943.908 747.395 944.358 748.548 944.596 C 753.356 951.353 745.957 958.779 740.781 963.006 C 739.336 962.512 738.149 961.873 736.763 961.212 C 731.683 953.571 738.333 948.13 744.356 943.767 z"/>
<path transform="translate(0,0)" fill="rgb(0,0,0)" d="M 772.516 902.814 L 776.558 902.646 C 779.469 904.113 778.501 903.019 779.672 905.934 C 778.656 912.175 774.566 915.782 770.238 920.092 C 768.524 920.175 767.241 919.965 765.523 919.804 C 762.665 917.679 763.514 919.054 762.903 915.532 C 764.906 909.354 767.517 906.91 772.516 902.814 z"/>
<path transform="translate(0,0)" fill="rgb(0,0,0)" d="M 1100.56 970.772 C 1105.1 971.128 1106.36 970.958 1107.7 975.533 C 1105.81 981.774 1103.18 982.904 1097.61 986.266 C 1094.76 986.032 1095.25 986.01 1092.44 985.104 C 1089.86 982.383 1090.47 983.928 1090.25 980.439 C 1092.7 974.644 1094.94 973.636 1100.56 970.772 z"/>
<path transform="translate(0,0)" fill="rgb(0,0,0)" d="M 1073.93 833.042 C 1079.41 832.866 1088.24 832.459 1091.59 837.697 C 1091.57 840.884 1091.56 840.653 1089.76 843.31 C 1083.58 843.822 1076.02 845.089 1072.07 839.617 C 1071.84 836.104 1072.2 836.043 1073.93 833.042 z"/>
<path transform="translate(0,0)" fill="rgb(0,0,0)" d="M 1144.37 946.097 C 1149.69 946.057 1157.11 945.097 1157.1 952.263 C 1155.13 955.75 1154.2 955.877 1150.64 957.64 C 1145.14 958.02 1140.38 958.251 1139.2 951.709 C 1140.61 948.252 1141.28 948.101 1144.37 946.097 z"/>
<path transform="translate(0,0)" fill="rgb(0,0,0)" d="M 1342.84 1073.44 C 1354.29 1076.66 1347.99 1086.99 1342.28 1092.4 C 1333.2 1089.19 1336.85 1078.35 1342.84 1073.44 z"/>
<path transform="translate(0,0)" fill="rgb(0,0,0)" d="M 851.388 849.109 L 853.551 850.466 C 857.205 858.11 847.337 862.501 841.429 864.628 C 832.394 857.531 845.272 851.009 851.388 849.109 z"/>
<path transform="translate(0,0)" fill="rgb(0,0,0)" d="M 966.549 845.668 C 969.061 846.702 968.536 846.508 970.796 848.122 C 973.122 855.041 968.036 858.072 962.654 861.357 C 961.763 861.138 959.968 860.39 959.042 860.037 C 956.622 857.048 957.258 858.704 957.012 854.913 C 959.257 849.331 961.265 848.147 966.549 845.668 z"/>
<path transform="translate(0,0)" fill="rgb(0,0,0)" d="M 655.448 1048.41 L 659.301 1050.56 C 663.062 1057.01 660.796 1059.87 655.683 1064.24 C 652.434 1063.33 652.58 1063.49 649.964 1061.41 C 646.892 1054.74 650.258 1052.13 655.448 1048.41 z"/>
<path transform="translate(0,0)" fill="rgb(0,0,0)" d="M 1185.35 920.867 C 1191.08 920.831 1194.83 920.849 1195.97 927.346 C 1194.56 930.996 1194.43 930.814 1191.39 933.035 C 1186.16 932.19 1183.59 932.178 1181.48 927.085 C 1182.04 923.671 1182.88 923.27 1185.35 920.867 z"/>
<path transform="translate(0,0)" fill="rgb(0,0,0)" d="M 886.323 824.684 C 889.08 824.921 889.249 825.21 891.819 826.384 C 895.189 832.109 890.059 834.861 885.611 837.601 C 882.995 837.23 882.985 837.073 880.581 835.87 C 877.007 829.944 881.301 827.162 886.323 824.684 z"/>
<path transform="translate(0,0)" fill="rgb(0,0,0)" d="M 730.765 1111.75 C 737.402 1115.18 744.903 1132.63 757.912 1142.19 C 770.799 1151.65 793.916 1157.04 800.854 1164.22 C 801.951 1168.2 801.919 1166.16 800.168 1170.54 C 785.106 1169.68 769.405 1162.67 756.682 1154.83 C 744.774 1147.49 720.34 1127.24 730.765 1111.75 z"/>
<path transform="translate(0,0)" fill="rgb(0,0,0)" d="M 1020.92 562.871 L 1026.03 563.116 C 1033.81 567.021 1039.93 599.908 1045.72 612.442 C 1056.09 612.367 1091.69 609.092 1097.64 614.451 C 1100.56 627.053 1061.47 645.527 1059.63 652.752 C 1057.25 662.119 1074.58 688.246 1071.01 703.346 C 1065.84 709.163 1057.47 702.093 1052.47 698.382 C 1044.2 692.254 1036.69 685.823 1027.91 680.347 L 1026.44 679.439 C 1015.66 675.879 965.219 733.348 977.967 686.06 C 980.642 676.138 985.493 663.741 988.672 653.464 C 981.216 645.017 971.084 638.933 962.559 631.639 C 957.375 627.204 947.36 620.177 953.336 613.131 C 960.859 609.766 990.683 612.169 1002.37 611.933 C 1007.57 599.457 1014.1 571.235 1020.92 562.871 z"/>
<path transform="translate(0,0)" fill="rgb(0,0,0)" d="M 993.06 1296.26 C 1023.13 1296.77 1045.76 1304.77 1038.23 1343.39 C 1036.4 1352.76 1028.61 1359.33 1020.45 1363.88 C 1026.18 1377.46 1036.99 1396.25 1041.03 1410.32 C 1041.24 1412.52 1039.72 1415.53 1038.08 1416.58 C 1028.55 1422.71 1022.47 1404.52 1019.42 1397.72 C 1014.87 1387.83 1010.17 1378.02 1005.33 1368.28 C 1002.43 1366.23 1004.1 1366.96 999.836 1366.95 C 988.677 1374.45 1003.91 1410.62 991.414 1417.69 C 987.553 1417.69 987.354 1417.37 983.855 1415.97 C 983.218 1415.17 982.096 1413.53 982.077 1412.57 C 981.789 1398.11 978.33 1306.52 983.004 1299.36 C 986.455 1296.79 988.629 1296.92 993.06 1296.26 z M 996.524 1352.81 C 1006.23 1352.61 1010.23 1353.25 1018.68 1348.38 C 1023.19 1342.88 1025.93 1335.77 1025.06 1328.6 C 1024.42 1323.43 1021.74 1318.73 1017.63 1315.54 C 1010.4 1309.99 1004.87 1310.67 996.167 1311.15 C 996.011 1322.43 995.33 1341.91 996.524 1352.81 z"/>
<path transform="translate(0,0)" fill="rgb(0,0,0)" d="M 1542.57 1380.44 C 1542.35 1370.38 1540.81 1308.46 1542.48 1303.75 C 1543.76 1300.12 1545.8 1298.16 1549.29 1296.61 C 1555.37 1296.89 1556.84 1301.41 1556.88 1306.95 C 1557.12 1342.02 1557.47 1377.22 1556.73 1412.27 C 1556.68 1414.69 1552.81 1417.02 1550.99 1418.25 C 1549.45 1417.89 1547.61 1417.59 1546.22 1416.83 C 1538.59 1412.64 1515.13 1346.52 1510.26 1333.33 C 1510.65 1342.58 1512.1 1405.08 1510.54 1409.63 C 1509.28 1413.29 1507.46 1416.88 1503.71 1418.43 C 1501.95 1419.15 1501.58 1418.55 1499.95 1417.89 C 1496.15 1412.66 1496.12 1407.13 1496.15 1400.79 C 1496.3 1367.98 1495.49 1335.03 1496.52 1302.26 C 1496.58 1300.13 1498.99 1298.26 1500.43 1296.8 C 1502.58 1296.97 1505.19 1297.04 1507.18 1297.88 C 1515.85 1301.56 1537.09 1367.41 1542.57 1380.44 z"/>
<path transform="translate(0,0)" fill="rgb(0,0,0)" d="M 854.644 618.459 C 863.846 620.711 869.452 637.501 876.878 647.802 C 884.138 646.488 906.499 639.02 910.525 644.197 C 910.333 653.744 894.322 664.573 891.206 672.977 C 888.5 680.278 910.207 700.364 901.066 706.945 C 893.807 706.959 880.343 699.142 873.308 695.59 C 862.96 690.087 851.967 721.451 841.265 716.071 C 838.315 709.657 842.17 690.268 843.209 682.664 C 837.106 678.253 813.721 670.05 815.895 662.486 C 822.062 657.873 839.037 655.632 847.928 653.366 C 850.894 640.348 848.651 629.073 854.644 618.459 z"/>
<path transform="translate(0,0)" fill="rgb(0,0,0)" d="M 1188.16 619.632 C 1190.99 619.729 1190.89 619.631 1193.49 620.679 C 1198.27 626.92 1197.09 642.074 1200.14 652.616 L 1200.54 653.942 C 1207.12 655.463 1233.93 657.358 1232.36 665.523 C 1227.17 671.579 1212.54 677.406 1204.4 681.994 C 1204.99 692.464 1208.56 705.002 1206.12 714.557 C 1204.92 715.745 1204.7 716.551 1203.38 716.232 C 1196.78 714.643 1184.28 699.334 1179.57 694.118 C 1172.63 696.402 1149.58 710.813 1145.19 703.969 C 1145.49 695.912 1154.06 681.656 1157.96 673.315 C 1152.99 666.574 1140.27 654.979 1138.51 647.069 C 1138.25 645.879 1139.26 645.466 1140.41 644.409 C 1148.53 642.454 1162.52 646.202 1171.73 647.508 C 1177.58 639.515 1181.7 628.789 1188.16 619.632 z"/>
<path transform="translate(0,0)" fill="rgb(0,0,0)" d="M 930.694 1297.06 C 934.234 1296.86 941.06 1296.36 942.352 1300.45 C 952.923 1333.91 959.651 1369.36 967.323 1403.67 C 968.182 1407.51 967.952 1412.4 966.752 1416.06 C 950.583 1427.22 953.197 1394.04 947.334 1387.96 C 946.275 1386.86 943.614 1387.07 942.018 1386.94 C 935.609 1386.95 929.2 1387 922.792 1387.1 C 920.497 1395.99 919.725 1413.17 911.054 1417.27 C 907.375 1417.37 907.632 1417.43 904.462 1415.56 C 903.696 1414.5 902.317 1412.6 902.566 1411.06 C 908.28 1375.75 918.655 1339.82 926.138 1304.64 C 926.82 1301.43 928.902 1298.97 930.694 1297.06 z M 938.25 1373.89 C 941.72 1373.59 942.659 1374.17 944.725 1372.33 C 944.177 1366.58 937.467 1330.1 935.141 1326.58 C 933.94 1331.8 925.847 1371.7 926.669 1373.54 C 931.231 1374.17 933.588 1374.01 938.25 1373.89 z"/>
<path transform="translate(0,0)" fill="rgb(0,0,0)" d="M 1215.26 1348.81 C 1216.36 1337.3 1213.38 1304.66 1217.4 1299.4 C 1219.65 1297.87 1221.62 1296.65 1224.54 1297.02 C 1225.75 1297.18 1227.3 1297.81 1228.01 1298.87 C 1230.75 1302.92 1231.28 1404.7 1229.11 1413.97 C 1226.41 1417.31 1227.37 1416.25 1222.68 1417.82 C 1213.06 1416.01 1215.27 1403.35 1215.33 1395.25 C 1215.41 1384.42 1215.4 1374.32 1214.9 1363.5 C 1205.75 1363.07 1196.11 1363.19 1186.91 1363.16 C 1186.99 1379.01 1187.45 1394.98 1187.13 1410.79 C 1187.03 1416.14 1180.45 1418.24 1175.72 1417.11 C 1172.49 1414.21 1172.32 1410.09 1172.29 1405.86 C 1172.08 1371.3 1171.57 1336.59 1172.52 1302.05 C 1172.57 1300.06 1174.03 1298.42 1175.28 1297.03 C 1184.24 1296.84 1186.23 1297.93 1186.66 1307.45 C 1187.28 1321.25 1186.95 1335.38 1186.85 1349.18 L 1215.26 1348.81 z"/>
<path transform="translate(0,0)" fill="rgb(0,0,0)" d="M 1369.15 1347.87 C 1376.01 1335.46 1384.24 1323.24 1391.58 1311.07 C 1395.23 1305.02 1400.45 1297.04 1408.12 1296.75 C 1421.54 1303.79 1389.76 1342.61 1383.43 1352.04 C 1391.47 1363.59 1403.23 1386.08 1411.15 1399.46 C 1414.21 1404.52 1419.83 1414.27 1412.12 1418.04 C 1394.97 1417.78 1384.81 1375.28 1374.03 1367.91 L 1372.32 1368.47 C 1365.27 1381.19 1374.38 1410.17 1364.71 1417.69 C 1357.52 1418.39 1354.81 1414.27 1354.72 1407.7 C 1354.26 1372.75 1353.68 1337.62 1355.03 1302.71 C 1355.14 1299.66 1356.36 1299.02 1358.21 1296.96 C 1362.76 1296.95 1364.94 1296.78 1368.24 1299.76 C 1370.68 1306.21 1369.31 1338.8 1369.15 1347.87 z"/>
<path transform="translate(0,0)" fill="rgb(0,0,0)" d="M 803.52 1296.12 C 838.571 1293.23 845.031 1327.74 831.318 1334.18 C 824.254 1332.95 822.441 1318.21 814.972 1310.74 C 808.748 1307.91 800.796 1311.64 798.272 1317.7 C 786.059 1347.02 832.01 1348.55 836.763 1374.83 C 840.562 1395.84 836.783 1413.52 813.372 1418.27 C 798.753 1418.51 789.096 1415.42 782.115 1401.27 C 779.362 1395.7 777.012 1383.4 785.475 1381.34 C 798.803 1378.1 793.151 1399.26 802.896 1402.98 C 810.628 1406.05 818.015 1403.14 821.659 1395.7 C 830.679 1377.94 812.252 1366.26 799.485 1357.78 C 782.298 1346.36 774.537 1328.7 784.946 1309.43 C 789.182 1301.59 795.237 1298.62 803.52 1296.12 z"/>
<path transform="translate(0,0)" fill="rgb(0,0,0)" d="M 592.358 1296.82 C 595.125 1296.79 598.307 1296.39 600.797 1297.78 C 606.315 1300.84 620.047 1376.6 623.007 1387.85 C 624.672 1377.07 637.868 1304.07 642.917 1298.92 C 644.636 1297.17 647.22 1296.55 649.623 1296.92 C 651.868 1297.27 653.452 1298.61 654.364 1300.67 C 657.453 1307.64 651.75 1322.58 649.85 1329.78 C 644.733 1350.45 640.273 1371.28 635.308 1391.99 C 633.718 1398.62 633.526 1406.33 630.571 1412.53 C 629.539 1414.69 628.013 1416.73 625.543 1417.3 C 622.931 1417.9 618.528 1417.08 616.598 1414.96 C 613.698 1411.79 589.74 1313.45 589.123 1304.06 C 588.912 1300.85 590.459 1299.16 592.358 1296.82 z"/>
<path transform="translate(0,0)" fill="rgb(0,0,0)" d="M 1443.8 1296.41 C 1454.01 1296.61 1477.19 1292.65 1481.22 1303.29 C 1480.89 1306.66 1481.13 1306.89 1478.97 1309.59 C 1473.25 1312.63 1451.93 1311.21 1444.39 1311.2 C 1443.73 1323.5 1444.05 1336.6 1444.12 1348.96 C 1448.05 1348.83 1465.9 1347.53 1469.85 1349.92 C 1478.54 1355.16 1472.88 1363.93 1463.12 1363.59 C 1457.71 1363.4 1450.24 1363.26 1444.14 1363.01 C 1443.97 1376.34 1443.96 1389.67 1444.1 1403 C 1455.19 1403.13 1479.03 1398.39 1482.43 1410.54 C 1481.72 1413.12 1481.72 1413.93 1479.01 1415.64 C 1472.56 1419.72 1438.02 1417.67 1432.38 1416.01 C 1430.43 1413.9 1429.46 1412.13 1429.54 1409.11 C 1429.93 1393.64 1425.94 1306.4 1431.88 1298.75 C 1435.94 1296.56 1439.16 1296.75 1443.8 1296.41 z"/>
<path transform="translate(0,0)" fill="rgb(0,0,0)" d="M 1123.31 1296.12 C 1141.49 1294.75 1151.43 1301.95 1156.71 1320.32 C 1158.4 1326.19 1155.51 1334.07 1148.85 1335.25 C 1140.53 1331.32 1140.25 1313.95 1134.25 1311.76 C 1109.01 1302.53 1114.17 1360.39 1114.38 1373.26 C 1114.43 1376.56 1116.97 1392.39 1118.33 1395.12 C 1124.57 1407.58 1136.98 1405.94 1140.68 1392.53 C 1140.96 1387.69 1140.96 1384.47 1143.46 1380.35 C 1155.9 1372.6 1157.82 1388.51 1155.37 1397.42 C 1147.75 1425.15 1113.04 1426.33 1103.78 1399.32 C 1098.24 1382.18 1098.6 1362.72 1099.32 1344.89 C 1100.11 1325.25 1101.84 1303.39 1123.31 1296.12 z"/>
<path transform="translate(0,0)" fill="rgb(0,0,0)" d="M 683.678 1296.44 C 692.441 1296.38 714.858 1293.75 719.906 1301.32 C 720.581 1304.77 719.827 1305.72 718.466 1308.95 C 713.297 1312.83 691.387 1311.28 683.166 1311.23 C 683.124 1323.87 683.152 1336.5 683.249 1349.14 C 692.046 1349.03 707.048 1346.18 711.336 1354.62 C 711.182 1367.31 692.759 1363.47 683.167 1363.56 C 683.132 1376.73 683.187 1389.9 683.333 1403.07 C 692.791 1403.05 702.278 1402.31 711.723 1402.85 C 718.26 1403.22 721.753 1406.74 720.037 1413.26 C 712.965 1421.04 668.572 1419.68 668.883 1411.35 C 669.414 1397.1 665.747 1305.2 670.169 1298.97 C 674.679 1296.7 678.592 1296.85 683.678 1296.44 z"/>
<path transform="translate(0,0)" fill="rgb(0,0,0)" d="M 1305.08 1296.23 C 1324.83 1294.8 1345.83 1307.96 1337.44 1332.02 C 1336.46 1334.83 1327.81 1334.16 1327.49 1333.37 C 1323.25 1322.87 1315.7 1295.82 1302.27 1316.55 C 1297.46 1324.14 1297.36 1333.75 1296.62 1342.57 C 1295.5 1358.8 1296.14 1378.46 1300.35 1394.21 C 1303.45 1405.79 1319.4 1408.74 1323.03 1392.77 C 1323.61 1388.14 1323.6 1385.94 1325.44 1381.74 C 1332.26 1375.78 1339.21 1379.45 1339.29 1388.18 C 1339.58 1419.69 1299.93 1432.15 1287.07 1400.95 C 1280.77 1384.78 1281.63 1366.03 1281.85 1348.88 C 1282.11 1328.08 1282.78 1304.99 1305.08 1296.23 z"/>
<path transform="translate(0,0)" fill="rgb(0,0,0)" d="M 744.771 690.347 C 751.69 693.821 758.019 707.488 762.643 715.044 C 769.488 714.001 784.622 708.218 789.648 712.813 C 789.56 718.165 778.572 729.533 774.496 735.303 C 777.056 741.37 785.738 754.487 783.561 760.199 C 778.152 762.567 766.658 755.985 761.241 753.527 C 752.102 751.843 745.173 772.898 735.94 770.342 C 733.094 765.33 736.526 749.977 737.337 743.161 C 731.602 740.607 715.719 734.497 713.909 728.228 L 714.993 726.366 C 718.09 724.79 724.446 723.397 727.894 723.053 C 750.455 720.807 734.494 705.364 744.771 690.347 z"/>
<path transform="translate(0,0)" fill="rgb(0,0,0)" d="M 1300.95 691.833 L 1303.48 692.81 C 1307.1 696.325 1307.53 712.897 1308.33 719.374 C 1314.89 721.909 1331.35 723.365 1334.45 729.096 C 1332.38 733.579 1316.31 740.334 1310.81 743.296 C 1310.98 750.837 1314.55 765.344 1310.18 771.108 C 1306.05 770.62 1294.58 756.475 1289.8 752.91 C 1281.81 755.123 1270.35 762.56 1263.94 760.794 C 1262.22 755.797 1270.97 740.679 1273.54 735.536 C 1268.46 727.96 1262.65 723.693 1259.69 714.781 C 1261.36 707.329 1279.93 713.871 1285.82 715.21 C 1289.72 707.931 1294.76 697.076 1300.95 691.833 z"/>
<path transform="translate(0,0)" fill="rgb(0,0,0)" d="M 509.278 1296.43 C 519.808 1296.54 544.889 1292.37 548.296 1303.95 C 545.789 1314.84 520.342 1311.14 510.918 1311.08 C 510.096 1324.48 510.134 1335.6 510.29 1349.05 C 519.378 1348.81 535.439 1346.92 540.851 1355.79 C 539.348 1365.53 518.504 1363.78 511.153 1363.62 C 506.202 1371.77 515.511 1409.56 506.722 1416.92 C 498.86 1418.28 494.896 1412.46 495.604 1407.02 C 497.161 1395.04 493.703 1303.64 497.609 1298.88 C 501.381 1296.44 504.692 1296.74 509.278 1296.43 z"/>
<path transform="translate(0,0)" fill="rgb(0,0,0)" d="M 848.94 1297.34 C 855.368 1296.86 896.109 1296.45 900.814 1298.18 C 906.014 1303.97 904.308 1310.79 896.485 1311.42 C 891.995 1311.79 886.462 1311.5 881.906 1311.45 C 881.61 1341.46 881.913 1371.93 881.946 1401.98 C 882.289 1409.09 880.945 1422.2 870.405 1416.99 C 865.096 1410.5 866.854 1383.83 866.882 1374.69 C 867.089 1353.71 867.032 1332.73 866.712 1311.75 C 859.573 1311.74 850.773 1312.88 845.413 1308.62 C 843.356 1303.52 844.156 1300.12 848.94 1297.34 z"/>
<path transform="translate(0,0)" fill="rgb(0,0,0)" d="M 564.544 1296.87 C 567.158 1296.81 574.008 1296.94 574.312 1300.19 C 577.762 1337.05 575.412 1375.76 575.094 1412.95 C 575.073 1415.42 571.952 1416.93 570.24 1418.13 C 558.264 1415.41 560.723 1410.67 560.625 1399.21 L 560.471 1331.84 C 560.423 1322.8 560.172 1311.27 560.641 1302.16 C 560.717 1300.69 563.387 1298.04 564.544 1296.87 z"/>
<path transform="translate(0,0)" fill="rgb(0,0,0)" d="M 1253.51 1296.84 C 1257.38 1297.02 1259.11 1296.73 1262.39 1298.79 C 1263.61 1301.08 1263.85 1303.36 1263.85 1305.94 C 1263.99 1341.28 1264.42 1376.71 1263.74 1412.03 C 1263.69 1414.58 1262.12 1416.34 1260.55 1418.12 C 1256.26 1417.7 1255.86 1417.71 1251.92 1416.14 C 1250.18 1413.77 1250.11 1414.17 1250.08 1411.01 C 1249.72 1374.99 1249.53 1338.8 1250.29 1302.8 C 1250.35 1299.79 1251.71 1298.97 1253.51 1296.84 z"/>
<path transform="translate(0,0)" fill="rgb(0,0,0)" d="M 1374.48 1196.35 C 1385.9 1196.02 1414.7 1193.48 1421.27 1204.47 C 1421.91 1208.24 1421.76 1208.11 1420.47 1211.53 C 1418.16 1214.33 1415.66 1214.29 1411.98 1215.03 C 1410.28 1214.97 1408.58 1214.86 1406.89 1214.68 C 1400.49 1213.99 1362.41 1209.56 1365.63 1199.23 C 1368.39 1196.82 1370.81 1196.91 1374.48 1196.35 z"/>
<path transform="translate(0,0)" fill="rgb(0,0,0)" d="M 634.388 1170.78 C 638.357 1170.76 637.796 1170.14 640.43 1172 C 643.21 1181.17 626.264 1204.58 616.59 1207.8 C 593.798 1203.3 625.941 1175.88 634.388 1170.78 z"/>
<path transform="translate(0,0)" fill="rgb(0,0,0)" d="M 1390.29 1164.11 C 1395.49 1163.46 1402.71 1163.5 1404.76 1169.2 C 1403.95 1179.24 1389.04 1181.71 1381.56 1183.2 C 1377.04 1183.83 1368.69 1186.22 1367.92 1180.05 C 1371.8 1172.12 1382.62 1167.63 1390.29 1164.11 z"/>
<path transform="translate(0,0)" fill="rgb(0,0,0)" d="M 1445 974.972 C 1449.01 975.759 1451.79 976.791 1454.37 979.98 C 1455.81 990.708 1434.86 995.165 1427.03 997.123 C 1422.74 997.635 1420.01 998.671 1418.17 994.268 C 1420.24 985.867 1437.1 977.346 1445 974.972 z"/>
<path transform="translate(0,0)" fill="rgb(0,0,0)" d="M 607.843 876.874 C 616.957 877.081 635.189 886.342 637.563 895.412 C 636.413 898.847 637.452 897.489 634.088 899.418 C 624.565 897.874 589.383 892.378 607.843 876.874 z"/>
<path transform="translate(0,0)" fill="rgb(0,0,0)" d="M 629.242 851.617 C 643.803 850.931 649.095 868.466 650.924 880.537 C 651.345 883.321 650.202 883.703 648.399 885.411 C 641.019 881.497 629.797 870.862 627.291 862.821 C 625.744 857.857 626.97 855.864 629.242 851.617 z"/>
<path transform="translate(0,0)" fill="rgb(0,0,0)" d="M 649.169 1186.49 C 652.305 1186.71 652.301 1186.46 654.832 1188.2 C 660.548 1196.53 659.152 1215.03 651.248 1222.31 C 647.844 1221.78 647.935 1221.79 644.809 1220.33 C 637.41 1211.65 644.118 1195.18 649.169 1186.49 z"/>
<path transform="translate(0,0)" fill="rgb(0,0,0)" d="M 1409.6 724.005 C 1413.48 724.51 1415.07 724.928 1418.04 727.492 C 1421.37 738.127 1402.65 743.63 1395.01 745.832 C 1391.02 746.561 1388.74 747.589 1386.81 743.539 C 1388.16 735.632 1402.26 726.272 1409.6 724.005 z"/>
<path transform="translate(0,0)" fill="rgb(0,0,0)" d="M 1423.86 953.902 C 1427.4 953.954 1428.75 953.659 1431.81 955.475 C 1437.92 963.902 1425.79 973.665 1420 979.281 C 1416.64 980.568 1415.67 980.583 1412.84 978.896 C 1409.85 970.939 1418.03 958.994 1423.86 953.902 z"/>
<path transform="translate(0,0)" fill="rgb(0,0,0)" d="M 1389.99 702.774 C 1409.16 702.86 1393.59 720.97 1388.05 727.087 C 1384.74 728.09 1384.11 728.212 1381.4 726.704 C 1377.89 719.006 1384.14 707.953 1389.99 702.774 z"/>
<path transform="translate(0,0)" fill="rgb(0,0,0)" d="M 567.997 1133.48 C 571.174 1131.51 575.337 1132.45 577.373 1135.58 C 579.41 1138.71 578.575 1142.89 575.493 1145 C 573.434 1146.41 570.774 1146.59 568.542 1145.48 C 566.31 1144.37 564.856 1142.13 564.743 1139.64 C 564.63 1137.15 565.875 1134.79 567.997 1133.48 z"/>
<path transform="translate(0,0)" fill="rgb(0,0,0)" d="M 1434.76 1065.4 C 1437.01 1064.51 1439.57 1064.9 1441.46 1066.42 C 1443.34 1067.95 1444.26 1070.37 1443.85 1072.76 C 1443.45 1075.15 1441.78 1077.14 1439.5 1077.96 C 1436.05 1079.2 1432.25 1077.44 1430.95 1074.01 C 1429.66 1070.58 1431.35 1066.75 1434.76 1065.4 z"/>
<path transform="translate(0,0)" fill="rgb(0,0,0)" d="M 571.103 1005.75 C 572.967 1004.37 575.434 1004.11 577.548 1005.07 C 579.661 1006.02 581.09 1008.05 581.282 1010.36 C 581.473 1012.68 580.396 1014.91 578.468 1016.2 C 575.583 1018.13 571.683 1017.41 569.682 1014.57 C 567.681 1011.73 568.312 1007.82 571.103 1005.75 z"/>
</svg>